<?xml version="1.0" encoding="utf-8"?>
<!-- Generator: Adobe Illustrator 14.0.0, SVG Export Plug-In . SVG Version: 6.00 Build 43363)  -->
<!DOCTYPE svg PUBLIC "-//W3C//DTD SVG 1.1//EN" "http://www.w3.org/Graphics/SVG/1.1/DTD/svg11.dtd">
<svg version="1.1" id="Слой_1" xmlns="http://www.w3.org/2000/svg" xmlns:xlink="http://www.w3.org/1999/xlink" x="0px" y="0px"
	 width="148px" height="28px" viewBox="0 0 148 28" enable-background="new 0 0 148 28" xml:space="preserve">
<g>
	<g>
		<path d="M38.814,22.552c-0.953-0.3-1.847-0.809-2.681-1.527c-0.459-0.4-0.689-0.844-0.689-1.329c0-0.383,0.145-0.722,0.435-1.014
			c0.289-0.293,0.638-0.438,1.047-0.438c0.322,0,0.612,0.1,0.868,0.301c0.68,0.551,1.344,0.951,1.99,1.202s1.413,0.376,2.298,0.376
			c0.953,0,1.774-0.209,2.464-0.627c0.689-0.416,1.034-0.935,1.034-1.553c0-0.751-0.341-1.34-1.021-1.766
			c-0.681-0.428-1.762-0.748-3.242-0.966c-3.728-0.534-5.591-2.238-5.591-5.112c0-1.052,0.281-1.967,0.843-2.743
			c0.562-0.775,1.327-1.369,2.298-1.778c0.97-0.409,2.051-0.615,3.241-0.615c1.073,0,2.081,0.159,3.025,0.477
			c0.944,0.318,1.732,0.735,2.361,1.254c0.493,0.384,0.74,0.826,0.74,1.327c0,0.384-0.145,0.724-0.434,1.015
			c-0.29,0.293-0.63,0.438-1.021,0.438c-0.255,0-0.484-0.074-0.689-0.225c-0.442-0.352-1.059-0.673-1.851-0.966
			c-0.792-0.291-1.503-0.438-2.132-0.438c-1.072,0-1.901,0.196-2.489,0.589c-0.587,0.392-0.881,0.906-0.881,1.541
			c0,0.719,0.303,1.262,0.907,1.628c0.604,0.368,1.553,0.668,2.846,0.902c1.464,0.25,2.634,0.572,3.511,0.965
			s1.535,0.928,1.979,1.604c0.442,0.676,0.663,1.575,0.663,2.693c0,1.053-0.302,1.976-0.905,2.769
			c-0.605,0.795-1.409,1.403-2.413,1.83c-1.004,0.426-2.085,0.639-3.242,0.639C40.856,23.004,39.768,22.853,38.814,22.552z"/>
		<path d="M63.73,9.522c0.289,0.285,0.434,0.653,0.434,1.104v10.6c0,0.435-0.145,0.796-0.434,1.089
			c-0.29,0.292-0.655,0.438-1.098,0.438s-0.805-0.141-1.085-0.426c-0.281-0.284-0.43-0.643-0.447-1.077
			c-0.426,0.484-1,0.897-1.724,1.24c-0.723,0.342-1.485,0.514-2.284,0.514c-1.174,0-2.238-0.296-3.191-0.89
			c-0.953-0.593-1.706-1.416-2.259-2.468c-0.554-1.053-0.83-2.247-0.83-3.584c0-1.335,0.272-2.534,0.817-3.596
			c0.544-1.06,1.289-1.887,2.233-2.479c0.944-0.594,1.986-0.89,3.127-0.89c0.817,0,1.583,0.146,2.298,0.438s1.318,0.664,1.813,1.114
			v-0.024c0-0.434,0.145-0.798,0.435-1.09c0.288-0.292,0.655-0.438,1.098-0.438S63.44,9.239,63.73,9.522z M60.182,19.058
			c0.697-0.793,1.046-1.792,1.046-2.995c0-1.202-0.349-2.205-1.046-3.006c-0.698-0.802-1.6-1.203-2.706-1.203
			c-1.089,0-1.983,0.401-2.681,1.203c-0.697,0.801-1.047,1.804-1.047,3.006c0,1.203,0.345,2.202,1.034,2.995
			s1.587,1.189,2.693,1.189S59.483,19.851,60.182,19.058z"/>
		<path d="M74.976,20.26c0.196,0.226,0.293,0.522,0.293,0.891c0,0.45-0.25,0.83-0.752,1.14c-0.503,0.309-1.068,0.463-1.698,0.463
			c-1.056,0-1.944-0.221-2.668-0.664c-0.724-0.441-1.085-1.382-1.085-2.818v-6.917h-1.174c-0.409,0-0.749-0.133-1.021-0.4
			c-0.272-0.267-0.408-0.601-0.408-1.002c0-0.384,0.136-0.704,0.408-0.964s0.612-0.389,1.021-0.389h1.174V7.995
			c0-0.435,0.149-0.798,0.447-1.091c0.297-0.292,0.668-0.438,1.11-0.438c0.425,0,0.783,0.146,1.072,0.438
			c0.289,0.293,0.435,0.656,0.435,1.091v1.604h1.813c0.408,0,0.748,0.134,1.021,0.401c0.272,0.267,0.409,0.602,0.409,1.002
			c0,0.384-0.137,0.706-0.409,0.965c-0.272,0.26-0.612,0.387-1.021,0.387H72.13v6.791c0,0.351,0.093,0.605,0.28,0.765
			c0.187,0.159,0.442,0.237,0.766,0.237c0.136,0,0.323-0.032,0.562-0.099c0.205-0.084,0.399-0.126,0.588-0.126
			C74.563,19.922,74.779,20.035,74.976,20.26z"/>
		<path d="M90.51,19.658c-0.612,1.062-1.45,1.884-2.515,2.469c-1.063,0.585-2.232,0.877-3.51,0.877
			c-1.293,0-2.467-0.292-3.521-0.877c-1.057-0.585-1.891-1.407-2.503-2.469c-0.612-1.06-0.919-2.259-0.919-3.596
			c0-1.335,0.307-2.534,0.919-3.596c0.612-1.06,1.446-1.887,2.503-2.479c1.055-0.594,2.229-0.89,3.521-0.89
			c1.277,0,2.447,0.296,3.51,0.89c1.064,0.593,1.902,1.42,2.515,2.479c0.613,1.062,0.919,2.261,0.919,3.596
			C91.429,17.399,91.123,18.599,90.51,19.658z M87.843,13.87c-0.349-0.643-0.817-1.14-1.404-1.49s-1.237-0.526-1.953-0.526
			c-0.715,0-1.366,0.176-1.952,0.526c-0.587,0.351-1.057,0.848-1.403,1.49c-0.351,0.644-0.524,1.375-0.524,2.192
			c0,0.818,0.174,1.546,0.524,2.181c0.347,0.635,0.816,1.128,1.403,1.479c0.586,0.351,1.237,0.525,1.952,0.525
			c0.716,0,1.366-0.175,1.953-0.525s1.056-0.844,1.404-1.479s0.523-1.362,0.523-2.181C88.366,15.245,88.191,14.514,87.843,13.87z"/>
		<path d="M113.486,10.613c0.647,1.012,0.971,2.409,0.971,4.197v6.415c0,0.435-0.146,0.796-0.434,1.089
			c-0.291,0.292-0.656,0.438-1.099,0.438c-0.443,0-0.809-0.146-1.099-0.438c-0.289-0.293-0.433-0.654-0.433-1.089v-6.415
			c0-0.919-0.185-1.641-0.55-2.168c-0.366-0.526-1.008-0.789-1.927-0.789c-0.953,0-1.698,0.28-2.234,0.84
			c-0.535,0.561-0.804,1.266-0.804,2.117v6.415c0,0.435-0.145,0.796-0.435,1.089c-0.289,0.292-0.654,0.438-1.098,0.438
			c-0.441,0-0.809-0.146-1.097-0.438c-0.291-0.293-0.436-0.654-0.436-1.089v-6.415c0-0.919-0.182-1.641-0.548-2.168
			c-0.366-0.526-1.009-0.789-1.928-0.789c-0.954,0-1.697,0.28-2.233,0.84c-0.537,0.561-0.805,1.266-0.805,2.117v6.415
			c0,0.435-0.146,0.796-0.434,1.089c-0.289,0.292-0.656,0.438-1.099,0.438s-0.808-0.146-1.098-0.438
			c-0.289-0.293-0.433-0.654-0.433-1.089v-10.35c0-0.435,0.144-0.798,0.433-1.09c0.29-0.291,0.655-0.439,1.098-0.439
			s0.81,0.148,1.099,0.439c0.288,0.292,0.434,0.655,0.434,1.09v0.401c0.459-0.602,1.042-1.114,1.749-1.541
			c0.706-0.427,1.493-0.639,2.361-0.639c2.145,0,3.514,0.918,4.11,2.756c0.392-0.702,0.983-1.336,1.774-1.905
			c0.791-0.566,1.688-0.851,2.693-0.851C111.674,9.098,112.839,9.603,113.486,10.613z"/>
		<path fill="#F74141" d="M118.248,22.339c-0.265-0.259-0.396-0.63-0.396-1.113v-0.427c0-0.484,0.131-0.856,0.396-1.115
			c0.262-0.259,0.643-0.388,1.136-0.388h0.332c0.492,0,0.871,0.129,1.136,0.388c0.263,0.259,0.396,0.631,0.396,1.115v0.427
			c0,0.483-0.133,0.854-0.396,1.113c-0.265,0.26-0.644,0.39-1.136,0.39h-0.332C118.891,22.729,118.51,22.599,118.248,22.339z"/>
		<path fill="#F74141" d="M133.028,9.522c0.349,0.285,0.523,0.619,0.523,1.003c0,0.518-0.136,0.906-0.407,1.165
			c-0.272,0.26-0.597,0.389-0.971,0.389c-0.255,0-0.545-0.059-0.868-0.176c-0.052-0.016-0.165-0.05-0.344-0.1
			c-0.18-0.05-0.371-0.076-0.574-0.076c-0.444,0-0.869,0.135-1.278,0.401c-0.407,0.268-0.743,0.673-1.007,1.215
			c-0.265,0.543-0.396,1.19-0.396,1.942v5.939c0,0.435-0.146,0.796-0.434,1.089c-0.289,0.292-0.656,0.438-1.099,0.438
			s-0.808-0.146-1.098-0.438c-0.289-0.293-0.433-0.654-0.433-1.089v-10.35c0-0.435,0.144-0.798,0.433-1.09
			c0.29-0.291,0.655-0.439,1.098-0.439s0.81,0.148,1.099,0.439c0.288,0.292,0.434,0.655,0.434,1.09v0.327
			c0.392-0.686,0.953-1.208,1.686-1.567c0.73-0.359,1.515-0.538,2.349-0.538C132.25,9.098,132.68,9.239,133.028,9.522z"/>
		<path fill="#F74141" d="M147.21,9.786c0.289,0.292,0.434,0.655,0.434,1.09v6.365c0,1.804-0.506,3.216-1.518,4.233
			c-1.014,1.021-2.457,1.529-4.328,1.529c-1.872,0-3.311-0.509-4.313-1.529c-1.005-1.018-1.507-2.43-1.507-4.233v-6.365
			c0-0.435,0.144-0.798,0.434-1.09c0.289-0.291,0.654-0.439,1.098-0.439c0.441,0,0.809,0.148,1.098,0.439
			c0.288,0.292,0.435,0.655,0.435,1.09v6.365c0,1.018,0.229,1.775,0.688,2.267c0.46,0.493,1.149,0.739,2.068,0.739
			c0.937,0,1.634-0.246,2.093-0.739c0.46-0.491,0.69-1.249,0.69-2.267v-6.365c0-0.435,0.144-0.798,0.433-1.09
			c0.29-0.291,0.656-0.439,1.099-0.439S146.92,9.495,147.21,9.786z"/>
	</g>
	<g>
		<path fill="#F74141" d="M26.717,0c1.276,0,2.319,1.043,2.319,2.318v23.362c0,1.275-1.043,2.319-2.319,2.319h-1.781
			c-1.275,0-2.319-1.044-2.319-2.319V2.318C22.616,1.043,23.66,0,24.936,0H26.717z"/>
		<path fill="#F74141" d="M15.569,3.498c1.286,0,2.337,1.053,2.337,2.338v16.325c0,1.285-1.051,2.338-2.337,2.338h-1.745
			c-1.286,0-2.337-1.053-2.337-2.338V5.836c0-1.285,1.051-2.338,2.337-2.338H15.569z"/>
		<path fill="#F74141" d="M4.519,6.999c1.24,0,2.256,1.016,2.256,2.257v9.487c0,1.24-1.016,2.257-2.256,2.257H2.613
			c-1.241,0-2.257-1.017-2.257-2.257V9.256c0-1.241,1.016-2.257,2.257-2.257H4.519z"/>
	</g>
</g>
</svg>
